<svg width="17" height="15" viewBox="0 0 17 15" fill="none" xmlns="http://www.w3.org/2000/svg">
<g clip-path="url(#clip0_3041_862)">
<path d="M14.5 7.4375C14.5 7.4375 16 9.15135 16 10.1175C16 11.2344 14.9275 11.4375 14.5 11.4375C14.0725 11.4375 13 11.2344 13 10.1175C13 9.15135 14.5 7.4375 14.5 7.4375Z" stroke="white" stroke-width="1.3" stroke-linecap="round" stroke-linejoin="round"/>
<path d="M13.3062 3.53917L14.2214 2.62391C14.3333 2.51205 14.3333 2.33239 14.2214 2.22391L12.7401 0.742561C12.6282 0.630697 12.4485 0.630697 12.3401 0.742561L11.4248 1.65781" stroke="white" stroke-width="1.3" stroke-linecap="round" stroke-linejoin="round"/>
<path d="M9.89326 8.07476C10.5 8.68154 11.1644 8.57985 11.6966 8.04426C11.6966 8.04426 12.1034 7.63748 12.4288 7.31205C13.2424 6.4985 13.2255 5.86121 12.9373 5.06121C12.6526 4.26121 13.3068 3.53579 13.3068 3.53579L12.3644 2.59342L11.4221 1.65105C11.4221 1.65105 10.6966 2.30528 9.89665 2.02054C9.09665 1.73579 8.45597 1.71884 7.64581 2.52901C7.32038 2.85443 6.9136 3.26121 6.9136 3.26121C6.3814 3.79342 6.27632 4.45782 6.8831 5.0646L9.88987 8.07137L9.89326 8.07476Z" stroke="white" stroke-width="1.3" stroke-linecap="round" stroke-linejoin="round"/>
<path d="M5.62175 4.73239C5.43192 4.80697 5.25226 4.93239 5.08277 5.09849L4.46243 5.71883C3.93023 6.25103 3.82515 6.91544 4.43192 7.52222L5.93362 9.02391L7.43531 10.5256C8.04209 11.1324 8.70649 11.0307 9.2387 10.4951L9.85903 9.87475C10.0285 9.70526 10.1539 9.5256 10.2251 9.33577" stroke="white" stroke-width="1.3" stroke-linecap="round" stroke-linejoin="round"/>
<path d="M3.03547 7.31882C2.84564 7.3934 2.66598 7.51882 2.49649 7.68493L1.18802 8.9934C0.655816 9.5256 0.550732 10.19 1.15751 10.7968L2.6592 12.2985L4.16089 13.8002C4.76767 14.4069 5.43208 14.3053 5.96428 13.7697L7.27275 12.4612C7.44225 12.2917 7.56767 12.112 7.63886 11.9222" stroke="white" stroke-width="1.3" stroke-linecap="round" stroke-linejoin="round"/>
</g>
<defs>
<clipPath id="clip0_3041_862">
<rect width="17" height="14.875" fill="white"/>
</clipPath>
</defs>
</svg>
