<svg width="30" height="44" viewBox="0 0 30 44" fill="none" xmlns="http://www.w3.org/2000/svg">
<g clip-path="url(#clip0_3017_442)">
<g filter="url(#filter0_d_3017_442)">
<path d="M14 35L7.93782 21.5L20.0622 21.5L14 35Z" fill="#0445BA"/>
<circle cx="14" cy="14" r="14" fill="#0445BA"/>
</g>
<g clip-path="url(#clip1_3017_442)">
<path d="M12.4272 10.4248H11.7081V10.0507H12.4272V10.4248ZM11.1469 8.80359C10.7395 8.80359 10.4277 9.11535 10.4277 9.52273V10.9569C10.4277 11.3643 10.7395 11.676 11.1469 11.676H12.9219C13.3293 11.676 13.641 11.3643 13.641 10.9569V9.52273C13.641 9.11535 13.3293 8.80359 12.9219 8.80359H11.1469Z" fill="white"/>
<path d="M19.0075 16.7225C18.5087 16.0366 18.0722 15.3175 17.6025 14.6358C17.166 13.9831 16.6672 13.4843 16.0727 12.9813V11.7051C16.5383 11.9545 16.979 12.2663 17.3489 12.6113C18.0972 13.2972 18.5669 14.0746 19.0616 14.9475C19.9345 16.4773 21.2149 17.6287 22.7072 18.5017V19.6864C21.988 19.5617 21.3645 19.3123 20.8075 18.8467C20.1216 18.2232 19.5313 17.4749 18.9992 16.7267L19.0075 16.7225ZM9.24708 16.4731H14.8589V17.8158H9.24708V16.4731ZM14.8589 8.39621V12.6363H9.24708V8.58327C10.1824 7.86412 11.1177 7.14913 12.053 6.46324C12.9883 7.08678 13.9236 7.73942 14.8589 8.39621ZM9.24708 13.8834H14.8589V15.226H9.24708V13.8834ZM23.7464 17.5622C23.7132 17.5622 23.7132 17.5331 23.7132 17.5331C22.9026 17.0967 22.1543 16.5978 21.4684 15.9452C20.8449 15.3216 20.3793 14.6358 19.9719 13.8584C19.0657 12.2705 17.7605 11.0234 16.106 10.2419V7.99715C16.106 7.81008 15.9813 7.65212 15.8566 7.56067L15.7942 7.49832C14.6428 6.68771 13.4871 5.87711 12.3648 5.09977C12.2068 4.97506 11.8992 4.97506 11.7412 5.09977C10.5898 5.99767 9.46324 6.87062 8.31177 7.74357L8.27851 7.77267C8.12055 7.86828 8 8.02209 8 8.2715V20.2434C8 21.054 9.24708 21.054 9.24708 20.2434V19.092H14.8589V20.2434C14.8589 21.054 16.106 21.054 16.106 20.2434V14.6607C16.1351 14.6898 16.1684 14.7231 16.2016 14.7854C16.2432 14.8491 16.3055 14.9323 16.3887 15.0348C16.4843 15.1595 16.5757 15.3175 16.6713 15.4713C17.1702 16.2528 17.669 17.0592 18.2302 17.8116C18.8537 18.6222 19.5064 19.4328 20.3502 20.0231C21.2523 20.6758 22.2832 20.9584 23.3723 20.9875C23.655 20.9875 23.8088 20.8628 23.9002 20.6758C23.9626 20.5802 23.9958 20.4887 23.9958 20.364V18.1193C24.0249 17.9031 23.9667 17.7119 23.7464 17.5581V17.5622Z" fill="white"/>
</g>
</g>
<defs>
<filter id="filter0_d_3017_442" x="-4" y="0" width="36" height="43" filterUnits="userSpaceOnUse" color-interpolation-filters="sRGB">
<feFlood flood-opacity="0" result="BackgroundImageFix"/>
<feColorMatrix in="SourceAlpha" type="matrix" values="0 0 0 0 0 0 0 0 0 0 0 0 0 0 0 0 0 0 127 0" result="hardAlpha"/>
<feOffset dy="4"/>
<feGaussianBlur stdDeviation="2"/>
<feComposite in2="hardAlpha" operator="out"/>
<feColorMatrix type="matrix" values="0 0 0 0 0 0 0 0 0 0 0 0 0 0 0 0 0 0 0.1 0"/>
<feBlend mode="normal" in2="BackgroundImageFix" result="effect1_dropShadow_3017_442"/>
<feBlend mode="normal" in="SourceGraphic" in2="effect1_dropShadow_3017_442" result="shape"/>
</filter>
<clipPath id="clip0_3017_442">
<rect width="30" height="44" fill="white"/>
</clipPath>
<clipPath id="clip1_3017_442">
<rect width="16" height="15.9917" fill="white" transform="translate(8 5)"/>
</clipPath>
</defs>
</svg>
