<svg width="16" height="16" viewBox="0 0 16 16" fill="none" xmlns="http://www.w3.org/2000/svg">
<g clip-path="url(#clip0_3015_402)">
<path d="M4.42721 5.42894H3.70807V5.05482H4.42721V5.42894ZM3.14688 3.80774C2.7395 3.80774 2.42773 4.11951 2.42773 4.52689V5.96103C2.42773 6.3684 2.7395 6.68017 3.14688 6.68017H4.92189C5.32927 6.68017 5.64104 6.3684 5.64104 5.96103V4.52689C5.64104 4.11951 5.32927 3.80774 4.92189 3.80774H3.14688Z" fill="#1A5CD0"/>
<path d="M11.0075 11.7267C10.5087 11.0408 10.0722 10.3216 9.60249 9.63989C9.16602 8.98725 8.66719 8.48842 8.07275 7.98544V6.70926C8.53832 6.95867 8.97896 7.27044 9.34892 7.61547C10.0972 8.30136 10.5669 9.07871 11.0616 9.95166C11.9345 11.4814 13.2149 12.6329 14.7072 13.5058V14.6906C13.988 14.5658 13.3645 14.3164 12.8075 13.8509C12.1216 13.2273 11.5313 12.4791 10.9992 11.7308L11.0075 11.7267ZM1.24708 11.4773H6.85892V12.8199H1.24708V11.4773ZM6.85892 3.40035V7.64041H1.24708V3.58741C2.18238 2.86826 3.11769 2.15327 4.053 1.46738C4.98831 2.09092 5.92362 2.74355 6.85892 3.40035ZM1.24708 8.88749H6.85892V10.2302H1.24708V8.88749ZM15.7464 12.5664C15.7132 12.5664 15.7132 12.5373 15.7132 12.5373C14.9026 12.1008 14.1543 11.602 13.4684 10.9493C12.8449 10.3258 12.3793 9.63989 11.9719 8.86255C11.0657 7.2746 9.76046 6.02752 8.106 5.24602V3.00128C8.106 2.81422 7.98129 2.65626 7.85659 2.56481L7.79423 2.50245C6.64276 1.69185 5.48714 0.881252 4.36477 0.103907C4.20681 -0.020801 3.89919 -0.020801 3.74123 0.103907C2.58976 1.0018 1.46324 1.87476 0.311769 2.74771L0.278514 2.77681C0.120551 2.87242 0 3.02622 0 3.27564V15.2476C0 16.0582 1.24708 16.0582 1.24708 15.2476V14.0961H6.85892V15.2476C6.85892 16.0582 8.106 16.0582 8.106 15.2476V9.66483C8.1351 9.69393 8.16835 9.72719 8.20161 9.78954C8.24318 9.85328 8.30553 9.93642 8.38867 10.039C8.48428 10.1637 8.57573 10.3216 8.67134 10.4754C9.17017 11.2569 9.66901 12.0634 10.2302 12.8158C10.8537 13.6264 11.5064 14.437 12.3502 15.0273C13.2523 15.6799 14.2832 15.9626 15.3723 15.9917C15.655 15.9917 15.8088 15.867 15.9002 15.6799C15.9626 15.5843 15.9958 15.4928 15.9958 15.3681V13.1234C16.0249 12.9072 15.9667 12.716 15.7464 12.5622V12.5664Z" fill="#1A5CD0"/>
</g>
<defs>
<clipPath id="clip0_3015_402">
<rect width="16" height="15.9917" fill="white" transform="translate(0 0.00415039)"/>
</clipPath>
</defs>
</svg>
