<svg width="30" height="44" viewBox="0 0 30 44" fill="none" xmlns="http://www.w3.org/2000/svg">
<g clip-path="url(#clip0_3036_252)">
<g filter="url(#filter0_d_3036_252)">
<path d="M14 35L7.93782 21.5L20.0622 21.5L14 35Z" fill="#B70FEA"/>
<circle cx="14" cy="14" r="14" fill="#B70FEA"/>
</g>
<g clip-path="url(#clip1_3036_252)">
<path d="M19.8092 20.1272C20.12 20.1272 20.3717 19.8755 20.3717 19.5647C20.3717 19.2539 20.12 19.0022 19.8092 19.0022H18.7119V9.74391C18.7119 8.90859 19.3892 8.23172 20.2241 8.23172H22.437C22.7478 8.23172 22.9995 7.98 22.9995 7.66922C22.9995 7.35844 22.7478 7.10672 22.437 7.10672H20.2241C19.2673 7.11797 18.5141 7.56938 17.9853 8.35172H16.7661C16.2842 8.35125 15.8717 8.62734 15.6458 9.04313H14.6914C14.5719 9.04969 14.6375 9.04359 14.4945 9.06375C14.3352 8.54906 13.8313 8.22656 13.3081 8.21344H12.2717C12.042 7.86188 11.6464 7.67063 11.2334 7.65984H10.2228C9.80844 6.6375 8.86812 6.02766 7.77547 6H5.5625C5.25172 6 5 6.25172 5 6.5625C5 6.87328 5.25172 7.125 5.5625 7.125H7.77594C8.61125 7.125 9.28813 7.80188 9.28813 8.63719V19.0022H7.22234C6.91156 19.0022 6.65984 19.2539 6.65984 19.5647C6.65984 19.8755 6.91156 20.1272 7.22234 20.1272H10.9569C11.2677 20.1272 11.5194 19.8755 11.5194 19.5647C11.5194 19.2539 11.2677 19.0022 10.9569 19.0022H10.4131V8.78484H11.2339C11.3052 8.78484 11.3628 8.8425 11.3628 8.91375V11.542C11.3628 11.8523 11.6145 12.1045 11.9253 12.1045C12.2361 12.1045 12.4878 11.8523 12.4878 11.542V9.33844H13.3086C13.3798 9.33844 13.4375 9.39609 13.4375 9.46734V10.7119C13.4375 11.0227 13.6892 11.2744 14 11.2744C14.3108 11.2744 14.5625 11.0227 14.5625 10.7119V10.297C14.5625 10.2258 14.6202 10.1681 14.6914 10.1681H15.5122V13.3402C15.5122 13.6509 15.7644 13.9027 16.0747 13.9027C16.385 13.9027 16.6372 13.6509 16.6372 13.3402V9.60563C16.6372 9.53438 16.6948 9.47672 16.7661 9.47672H17.6038C17.5859 9.65344 17.5916 9.56438 17.5869 9.74391V19.0022H12.8933C12.5825 19.0022 12.3308 19.2539 12.3308 19.5647C12.3308 19.8755 12.5825 20.1272 12.8933 20.1272H19.8092Z" fill="white"/>
<path d="M14.2765 20.9386C14.5868 20.9386 14.839 21.1903 14.839 21.5011C14.839 21.8119 14.5868 22.0636 14.2765 22.0636H9.15869C8.84791 22.0636 8.59619 21.8119 8.59619 21.5011C8.59619 21.1903 8.84791 20.9386 9.15869 20.9386H14.2765Z" fill="white"/>
<path d="M17.4579 20.9386C17.7687 20.9386 18.0204 21.1903 18.0204 21.5011C18.0204 21.8119 17.7687 22.0636 17.4579 22.0636H16.2129C15.9021 22.0636 15.6504 21.8119 15.6504 21.5011C15.6504 21.1903 15.9021 20.9386 16.2129 20.9386H17.4579Z" fill="white"/>
<path d="M22.4374 20.9386C22.7481 20.9386 22.9999 21.1903 22.9999 21.5011C22.9999 21.8119 22.7481 22.0636 22.4374 22.0636H19.1177C18.8074 22.0636 18.5552 21.8119 18.5552 21.5011C18.5552 21.1903 18.8074 20.9386 19.1177 20.9386H22.4374Z" fill="white"/>
<path d="M14 11.8092C14.3108 11.8092 14.5625 12.0614 14.5625 12.3717V12.9248C14.5625 13.2356 14.3108 13.4873 14 13.4873C13.6892 13.4873 13.4375 13.2356 13.4375 12.9248V12.3717C13.4375 12.0614 13.6892 11.8092 14 11.8092Z" fill="white"/>
<path d="M14 14.0227C14.3108 14.0227 14.5625 14.2744 14.5625 14.5852V17.9048C14.5625 18.2152 14.3108 18.4673 14 18.4673C13.6892 18.4673 13.4375 18.2152 13.4375 17.9048V14.5852C13.4375 14.2744 13.6892 14.0227 14 14.0227Z" fill="white"/>
<path d="M11.9253 16.7887C12.2356 16.7887 12.4878 17.0405 12.4878 17.3512V18.1809C12.4878 18.4917 12.2356 18.7434 11.9253 18.7434C11.615 18.7434 11.3628 18.4917 11.3628 18.1809V17.3512C11.3628 17.0405 11.6145 16.7887 11.9253 16.7887Z" fill="white"/>
<path d="M11.9253 12.6394C12.2356 12.6394 12.4878 12.8911 12.4878 13.2019V15.6914C12.4878 16.0022 12.2356 16.2539 11.9253 16.2539C11.615 16.2539 11.3628 16.0022 11.3628 15.6914V13.2019C11.3628 12.8911 11.6145 12.6394 11.9253 12.6394Z" fill="white"/>
<path d="M16.0747 17.0658C16.3855 17.0658 16.6372 17.3175 16.6372 17.6283V17.9048C16.6372 18.2152 16.3855 18.4673 16.0747 18.4673C15.7639 18.4673 15.5122 18.2152 15.5122 17.9048V17.6283C15.5122 17.3175 15.7644 17.0658 16.0747 17.0658Z" fill="white"/>
<path d="M16.0747 14.4375C16.3855 14.4375 16.6372 14.6892 16.6372 15V15.9684C16.6372 16.2788 16.3855 16.5309 16.0747 16.5309C15.7639 16.5309 15.5122 16.2788 15.5122 15.9684V15C15.5122 14.6892 15.7644 14.4375 16.0747 14.4375Z" fill="white"/>
</g>
</g>
<defs>
<filter id="filter0_d_3036_252" x="-4" y="0" width="36" height="43" filterUnits="userSpaceOnUse" color-interpolation-filters="sRGB">
<feFlood flood-opacity="0" result="BackgroundImageFix"/>
<feColorMatrix in="SourceAlpha" type="matrix" values="0 0 0 0 0 0 0 0 0 0 0 0 0 0 0 0 0 0 127 0" result="hardAlpha"/>
<feOffset dy="4"/>
<feGaussianBlur stdDeviation="2"/>
<feComposite in2="hardAlpha" operator="out"/>
<feColorMatrix type="matrix" values="0 0 0 0 0 0 0 0 0 0 0 0 0 0 0 0 0 0 0.1 0"/>
<feBlend mode="normal" in2="BackgroundImageFix" result="effect1_dropShadow_3036_252"/>
<feBlend mode="normal" in="SourceGraphic" in2="effect1_dropShadow_3036_252" result="shape"/>
</filter>
<clipPath id="clip0_3036_252">
<rect width="30" height="44" fill="white"/>
</clipPath>
<clipPath id="clip1_3036_252">
<rect width="18" height="16.0636" fill="white" transform="translate(5 6)"/>
</clipPath>
</defs>
</svg>
