<svg width="18" height="18" viewBox="0 0 18 18" fill="none" xmlns="http://www.w3.org/2000/svg">
<g clip-path="url(#clip0_3016_415)">
<path d="M14.8092 15.0954C15.12 15.0954 15.3717 14.8437 15.3717 14.5329C15.3717 14.2221 15.12 13.9704 14.8092 13.9704H13.7119V4.71211C13.7119 3.87679 14.3892 3.19992 15.2241 3.19992H17.437C17.7478 3.19992 17.9995 2.9482 17.9995 2.63742C17.9995 2.32664 17.7478 2.07492 17.437 2.07492H15.2241C14.2673 2.08617 13.5141 2.53758 12.9853 3.31992H11.7661C11.2842 3.31945 10.8717 3.59554 10.6458 4.01133H9.69141C9.57187 4.01789 9.6375 4.01179 9.49453 4.03195C9.33516 3.51726 8.83125 3.19476 8.30813 3.18164H7.27172C7.04203 2.83008 6.64641 2.63883 6.23344 2.62804H5.22281C4.80844 1.6057 3.86812 0.995857 2.77547 0.968201H0.5625C0.251719 0.968201 0 1.21992 0 1.5307C0 1.84148 0.251719 2.0932 0.5625 2.0932H2.77594C3.61125 2.0932 4.28813 2.77008 4.28813 3.60539V13.9704H2.22234C1.91156 13.9704 1.65984 14.2221 1.65984 14.5329C1.65984 14.8437 1.91156 15.0954 2.22234 15.0954H5.95687C6.26766 15.0954 6.51937 14.8437 6.51937 14.5329C6.51937 14.2221 6.26766 13.9704 5.95687 13.9704H5.41313V3.75304H6.23391C6.30516 3.75304 6.36281 3.8107 6.36281 3.88195V6.51023C6.36281 6.82055 6.61453 7.07273 6.92531 7.07273C7.23609 7.07273 7.48781 6.82055 7.48781 6.51023V4.30664H8.30859C8.37984 4.30664 8.4375 4.36429 8.4375 4.43554V5.68008C8.4375 5.99086 8.68922 6.24258 9 6.24258C9.31078 6.24258 9.5625 5.99086 9.5625 5.68008V5.26523C9.5625 5.19398 9.62016 5.13633 9.69141 5.13633H10.5122V8.30836C10.5122 8.61914 10.7644 8.87086 11.0747 8.87086C11.385 8.87086 11.6372 8.61914 11.6372 8.30836V4.57383C11.6372 4.50258 11.6948 4.44492 11.7661 4.44492H12.6038C12.5859 4.62164 12.5916 4.53258 12.5869 4.71211V13.9704H7.89328C7.5825 13.9704 7.33078 14.2221 7.33078 14.5329C7.33078 14.8437 7.5825 15.0954 7.89328 15.0954H14.8092Z" fill="#1A5CD0"/>
<path d="M9.2765 15.9068C9.58682 15.9068 9.839 16.1585 9.839 16.4693C9.839 16.7801 9.58682 17.0318 9.2765 17.0318H4.15869C3.84791 17.0318 3.59619 16.7801 3.59619 16.4693C3.59619 16.1585 3.84791 15.9068 4.15869 15.9068H9.2765Z" fill="#1A5CD0"/>
<path d="M12.4579 15.9068C12.7687 15.9068 13.0204 16.1585 13.0204 16.4693C13.0204 16.7801 12.7687 17.0318 12.4579 17.0318H11.2129C10.9021 17.0318 10.6504 16.7801 10.6504 16.4693C10.6504 16.1585 10.9021 15.9068 11.2129 15.9068H12.4579Z" fill="#1A5CD0"/>
<path d="M17.4374 15.9068C17.7481 15.9068 17.9999 16.1585 17.9999 16.4693C17.9999 16.7801 17.7481 17.0318 17.4374 17.0318H14.1177C13.8074 17.0318 13.5552 16.7801 13.5552 16.4693C13.5552 16.1585 13.8074 15.9068 14.1177 15.9068H17.4374Z" fill="#1A5CD0"/>
<path d="M9 6.7774C9.31078 6.7774 9.5625 7.02959 9.5625 7.3399V7.89303C9.5625 8.20381 9.31078 8.45553 9 8.45553C8.68922 8.45553 8.4375 8.20381 8.4375 7.89303V7.3399C8.4375 7.02959 8.68922 6.7774 9 6.7774Z" fill="#1A5CD0"/>
<path d="M9 8.99084C9.31078 8.99084 9.5625 9.24256 9.5625 9.55334V12.873C9.5625 13.1833 9.31078 13.4355 9 13.4355C8.68922 13.4355 8.4375 13.1833 8.4375 12.873V9.55334C8.4375 9.24256 8.68922 8.99084 9 8.99084Z" fill="#1A5CD0"/>
<path d="M6.92529 11.757C7.23561 11.757 7.48779 12.0087 7.48779 12.3195V13.1491C7.48779 13.4599 7.23561 13.7116 6.92529 13.7116C6.61498 13.7116 6.36279 13.4599 6.36279 13.1491V12.3195C6.36279 12.0087 6.61451 11.757 6.92529 11.757Z" fill="#1A5CD0"/>
<path d="M6.92529 7.60757C7.23561 7.60757 7.48779 7.85929 7.48779 8.17007V10.6596C7.48779 10.9704 7.23561 11.2221 6.92529 11.2221C6.61498 11.2221 6.36279 10.9704 6.36279 10.6596V8.17007C6.36279 7.85929 6.61451 7.60757 6.92529 7.60757Z" fill="#1A5CD0"/>
<path d="M11.0747 12.034C11.3855 12.034 11.6372 12.2857 11.6372 12.5965V12.8731C11.6372 13.1834 11.3855 13.4356 11.0747 13.4356C10.7639 13.4356 10.5122 13.1834 10.5122 12.8731V12.5965C10.5122 12.2857 10.7644 12.034 11.0747 12.034Z" fill="#1A5CD0"/>
<path d="M11.0747 9.4057C11.3855 9.4057 11.6372 9.65742 11.6372 9.9682V10.9366C11.6372 11.247 11.3855 11.4991 11.0747 11.4991C10.7639 11.4991 10.5122 11.247 10.5122 10.9366V9.9682C10.5122 9.65742 10.7644 9.4057 11.0747 9.4057Z" fill="#1A5CD0"/>
</g>
<defs>
<clipPath id="clip0_3016_415">
<rect width="18" height="16.0636" fill="white" transform="translate(0 0.968201)"/>
</clipPath>
</defs>
</svg>
