<svg width="20" height="20" viewBox="0 0 20 20" fill="none" xmlns="http://www.w3.org/2000/svg">
<g clip-path="url(#clip0_3041_823)">
<path d="M9.99981 2.45773C5.86566 2.45773 2.49981 5.82358 2.49981 9.95772C2.49981 14.0919 5.86566 17.4577 9.99981 17.4577C14.134 17.4577 17.4998 14.0919 17.4998 9.95772C17.4998 5.82358 14.134 2.45773 9.99981 2.45773ZM9.99981 18.6528C7.67704 18.6528 5.49331 17.7504 3.85347 16.1041C2.21282 14.4634 1.30469 12.2813 1.30469 9.95772C1.30469 7.63415 2.20713 5.45122 3.85347 3.81138C5.49412 2.17073 7.67623 1.2626 9.99981 1.2626C12.3234 1.2626 14.5063 2.16504 16.1461 3.81138C17.7868 5.45203 18.6949 7.63415 18.6949 9.95772C18.6949 12.2813 17.7925 14.4634 16.1461 16.1041C14.5055 17.7504 12.3234 18.6528 9.99981 18.6528Z" fill="white"/>
<path d="M11.4574 9.95772C11.4574 10.7626 10.8046 11.4146 9.99972 11.4146C9.19484 11.4146 8.54199 10.7626 8.54199 9.95772C8.54199 9.15285 9.19484 8.5 9.99972 8.5C10.8046 8.5 11.4574 9.15203 11.4574 9.95772Z" fill="white"/>
<path d="M3.12846 10.5984H0.597561C0.268293 10.5984 0 10.3301 0 10.0008C0 9.67154 0.268293 9.40325 0.597561 9.40325H3.12764C3.45691 9.40325 3.7252 9.67154 3.7252 10.0008C3.7252 10.3301 3.45691 10.5984 3.12764 10.5984H3.12846ZM19.4024 10.5984H16.8724C16.5431 10.5984 16.2748 10.3301 16.2748 10.0008C16.2748 9.67154 16.5431 9.40325 16.8724 9.40325H19.4024C19.7317 9.40325 20 9.67154 20 10.0008C20 10.3301 19.7317 10.5984 19.4024 10.5984ZM10 20C9.67073 20 9.40244 19.7317 9.40244 19.4024V16.8724C9.40244 16.5431 9.67073 16.2748 10 16.2748C10.3293 16.2748 10.5976 16.5431 10.5976 16.8724V19.4024C10.5976 19.7317 10.3293 20 10 20ZM10 3.72602C9.67073 3.72602 9.40244 3.45772 9.40244 3.12846V0.597561C9.40244 0.268293 9.67073 0 10 0C10.3293 0 10.5976 0.268293 10.5976 0.597561V3.12764C10.5976 3.45691 10.3293 3.7252 10 3.7252V3.72602Z" fill="white"/>
</g>
<defs>
<clipPath id="clip0_3041_823">
<rect width="20" height="20" fill="white"/>
</clipPath>
</defs>
</svg>
