<svg width="33" height="33" viewBox="0 0 33 33" fill="none" xmlns="http://www.w3.org/2000/svg">
<g clip-path="url(#clip0_3014_111)">
<path d="M16.5 29.4643C16.2172 29.4643 15.95 29.37 15.7457 29.1814C15.4629 28.93 8.73715 23.1786 5.94001 16.8771C5.67287 16.28 5.94001 15.5886 6.53715 15.3214C7.13429 15.0543 7.84144 15.3214 8.09287 15.9186C10.1357 20.5229 14.6614 24.9857 16.4843 26.6829C19.7057 23.5557 25.9286 16.5786 25.9286 12.0529C25.9286 6.71 21.7014 2.35714 16.5 2.35714C11.2986 2.35714 7.07144 6.71 7.07144 12.0529C7.07144 12.6971 6.53715 13.2314 5.89287 13.2314C5.24858 13.2314 4.71429 12.6971 4.71429 12.0529C4.71429 5.40571 9.99429 0 16.5 0C23.0057 0 28.2857 5.40571 28.2857 12.0529C28.2857 18.7 17.7414 28.7414 17.3014 29.15C17.0814 29.3386 16.7986 29.4486 16.5 29.4486V29.4643Z" fill="#6F6F6F"/>
<path d="M31.8214 33H1.17858C0.75429 33 0.361433 32.78 0.157147 32.4028C-0.0471382 32.0414 -0.0628525 31.5857 0.157147 31.2243L4.87143 22.9743C5.02858 22.6914 5.28 22.4871 5.59429 22.3928C5.89286 22.2986 6.22286 22.3457 6.50572 22.5028C6.77286 22.66 6.97715 22.9271 7.05572 23.2414C7.13429 23.54 7.08715 23.87 6.93 24.1371L3.22143 30.6271H29.7943L26.0857 24.1371C25.7871 23.5871 25.9757 22.8643 26.5414 22.55C27.0914 22.2357 27.7986 22.4086 28.1286 22.9743L32.8429 31.2243C33.0471 31.5857 33.0471 32.0414 32.8429 32.4028C32.6386 32.7643 32.2457 33 31.8214 33ZM16.5 9.42855C15.1957 9.42855 14.1429 10.4814 14.1429 11.7857C14.1429 13.09 15.1957 14.1428 16.5 14.1428C17.8043 14.1428 18.8571 13.09 18.8571 11.7857C18.8571 10.4814 17.8043 9.42855 16.5 9.42855ZM16.5 16.5C13.8914 16.5 11.7857 14.3943 11.7857 11.7857C11.7857 9.17713 13.8914 7.07141 16.5 7.07141C19.1086 7.07141 21.2143 9.17713 21.2143 11.7857C21.2143 14.3943 19.1086 16.5 16.5 16.5Z" fill="#6F6F6F"/>
</g>
<defs>
<clipPath id="clip0_3014_111">
<rect width="33" height="33" fill="white"/>
</clipPath>
</defs>
</svg>
