<svg width="17" height="16" viewBox="0 0 17 16" fill="none" xmlns="http://www.w3.org/2000/svg">
<g clip-path="url(#clip0_3016_424)">
<path d="M14.5 8C14.5 8 16 9.71385 16 10.68C16 11.7969 14.9275 12 14.5 12C14.0725 12 13 11.7969 13 10.68C13 9.71385 14.5 8 14.5 8Z" stroke="#1A5CD0" stroke-width="1.3" stroke-linecap="round" stroke-linejoin="round"/>
<path d="M13.3071 4.10166L14.2224 3.18641C14.3343 3.07455 14.3343 2.89489 14.2224 2.78641L12.741 1.30506C12.6292 1.19319 12.4495 1.19319 12.341 1.30506L11.4258 2.22031" stroke="#1A5CD0" stroke-width="1.3" stroke-linecap="round" stroke-linejoin="round"/>
<path d="M9.89326 8.63725C10.5 9.24403 11.1644 9.14233 11.6966 8.60674C11.6966 8.60674 12.1034 8.19996 12.4288 7.87454C13.2424 7.06098 13.2255 6.42369 12.9373 5.6237C12.6526 4.8237 13.3068 4.09827 13.3068 4.09827L12.3644 3.1559L11.4221 2.21353C11.4221 2.21353 10.6966 2.86777 9.89665 2.58302C9.09665 2.29828 8.45597 2.28133 7.64581 3.0915C7.32038 3.41692 6.9136 3.8237 6.9136 3.8237C6.3814 4.3559 6.27632 5.02031 6.8831 5.62709L9.88987 8.63386L9.89326 8.63725Z" stroke="#1A5CD0" stroke-width="1.3" stroke-linecap="round" stroke-linejoin="round"/>
<path d="M5.62224 5.29489C5.43241 5.36947 5.25275 5.49489 5.08326 5.66099L4.46292 6.28133C3.93072 6.81353 3.82563 7.47794 4.43241 8.08472L5.9341 9.58641L7.4358 11.0881C8.04258 11.6949 8.70698 11.5932 9.23918 11.0576L9.85952 10.4373C10.029 10.2678 10.1544 10.0881 10.2256 9.89827" stroke="#1A5CD0" stroke-width="1.3" stroke-linecap="round" stroke-linejoin="round"/>
<path d="M3.03596 7.88132C2.84613 7.95589 2.66647 8.08132 2.49698 8.24742L1.18851 9.55589C0.656304 10.0881 0.55122 10.7525 1.158 11.3593L2.65969 12.861L4.16138 14.3627C4.76816 14.9694 5.43257 14.8677 5.96477 14.3322L7.27324 13.0237C7.44273 12.8542 7.56816 12.6745 7.63934 12.4847" stroke="#1A5CD0" stroke-width="1.3" stroke-linecap="round" stroke-linejoin="round"/>
</g>
<defs>
<clipPath id="clip0_3016_424">
<rect width="17" height="14.875" fill="white" transform="translate(0 0.5625)"/>
</clipPath>
</defs>
</svg>
