<svg width="22" height="22" viewBox="0 0 22 22" fill="none" xmlns="http://www.w3.org/2000/svg">
<path d="M6.41667 8.24999V6.41666H19.25V8.24999H6.41667ZM6.41667 11.9167V10.0833H19.25V11.9167H6.41667ZM6.41667 15.5833V13.75H19.25V15.5833H6.41667ZM3.66667 8.24999C3.40694 8.24999 3.18924 8.16214 3.01354 7.98645C2.83785 7.81075 2.75 7.59305 2.75 7.33332C2.75 7.0736 2.83785 6.85589 3.01354 6.6802C3.18924 6.5045 3.40694 6.41666 3.66667 6.41666C3.92639 6.41666 4.1441 6.5045 4.31979 6.6802C4.49549 6.85589 4.58333 7.0736 4.58333 7.33332C4.58333 7.59305 4.49549 7.81075 4.31979 7.98645C4.1441 8.16214 3.92639 8.24999 3.66667 8.24999ZM3.66667 11.9167C3.40694 11.9167 3.18924 11.8288 3.01354 11.6531C2.83785 11.4774 2.75 11.2597 2.75 11C2.75 10.7403 2.83785 10.5226 3.01354 10.3469C3.18924 10.1712 3.40694 10.0833 3.66667 10.0833C3.92639 10.0833 4.1441 10.1712 4.31979 10.3469C4.49549 10.5226 4.58333 10.7403 4.58333 11C4.58333 11.2597 4.49549 11.4774 4.31979 11.6531C4.1441 11.8288 3.92639 11.9167 3.66667 11.9167ZM3.66667 15.5833C3.40694 15.5833 3.18924 15.4955 3.01354 15.3198C2.83785 15.1441 2.75 14.9264 2.75 14.6667C2.75 14.4069 2.83785 14.1892 3.01354 14.0135C3.18924 13.8378 3.40694 13.75 3.66667 13.75C3.92639 13.75 4.1441 13.8378 4.31979 14.0135C4.49549 14.1892 4.58333 14.4069 4.58333 14.6667C4.58333 14.9264 4.49549 15.1441 4.31979 15.3198C4.1441 15.4955 3.92639 15.5833 3.66667 15.5833Z" fill="white"/>
</svg>
