<svg width="22" height="22" viewBox="0 0 22 22" fill="none" xmlns="http://www.w3.org/2000/svg">
<g clip-path="url(#clip0_3015_326)">
<path d="M11.0002 2.70349C6.45262 2.70349 2.75018 6.40593 2.75018 10.9535C2.75018 15.501 6.45262 19.2035 11.0002 19.2035C15.5477 19.2035 19.2502 15.501 19.2502 10.9535C19.2502 6.40593 15.5477 2.70349 11.0002 2.70349ZM11.0002 20.5181C8.44514 20.5181 6.04303 19.5254 4.23921 17.7145C2.43449 15.9097 1.43555 13.5094 1.43555 10.9535C1.43555 8.39755 2.42823 5.99633 4.23921 4.19251C6.04392 2.3878 8.44425 1.38885 11.0002 1.38885C13.5561 1.38885 15.9573 2.38154 17.7612 4.19251C19.5659 5.99723 20.5648 8.39755 20.5648 10.9535C20.5648 13.5094 19.5721 15.9097 17.7612 17.7145C15.9564 19.5254 13.5561 20.5181 11.0002 20.5181Z" fill="#333333"/>
<path d="M12.6035 10.9535C12.6035 11.8389 11.8853 12.5561 11 12.5561C10.1146 12.5561 9.39648 11.8389 9.39648 10.9535C9.39648 10.0681 10.1146 9.35001 11 9.35001C11.8853 9.35001 12.6035 10.0672 12.6035 10.9535Z" fill="#333333"/>
<path d="M3.4413 11.6582H0.657317C0.295122 11.6582 0 11.3631 0 11.0009C0 10.6387 0.295122 10.3436 0.657317 10.3436H3.44041C3.8026 10.3436 4.09772 10.6387 4.09772 11.0009C4.09772 11.3631 3.8026 11.6582 3.44041 11.6582H3.4413ZM21.3427 11.6582H18.5596C18.1974 11.6582 17.9023 11.3631 17.9023 11.0009C17.9023 10.6387 18.1974 10.3436 18.5596 10.3436H21.3427C21.7049 10.3436 22 10.6387 22 11.0009C22 11.3631 21.7049 11.6582 21.3427 11.6582ZM11 22C10.6378 22 10.3427 21.7049 10.3427 21.3427V18.5596C10.3427 18.1974 10.6378 17.9023 11 17.9023C11.3622 17.9023 11.6573 18.1974 11.6573 18.5596V21.3427C11.6573 21.7049 11.3622 22 11 22ZM11 4.09862C10.6378 4.09862 10.3427 3.8035 10.3427 3.4413V0.657317C10.3427 0.295122 10.6378 0 11 0C11.3622 0 11.6573 0.295122 11.6573 0.657317V3.44041C11.6573 3.8026 11.3622 4.09772 11 4.09772V4.09862Z" fill="#333333"/>
</g>
<defs>
<clipPath id="clip0_3015_326">
<rect width="22" height="22" fill="white"/>
</clipPath>
</defs>
</svg>
