<svg width="14" height="14" viewBox="0 0 14 14" fill="none" xmlns="http://www.w3.org/2000/svg">
<g clip-path="url(#clip0_3092_492)">
<path d="M1.5 0V12H13.5V13.5H0V0H1.5Z" fill="black"/>
<path d="M4.89977 6.18994H4.16977C3.94333 6.18994 3.75977 6.3735 3.75977 6.59994V8.87994C3.75977 9.10638 3.94333 9.28994 4.16977 9.28994H4.89977C5.1262 9.28994 5.30977 9.10638 5.30977 8.87994V6.59994C5.30977 6.3735 5.1262 6.18994 4.89977 6.18994Z" fill="black"/>
<path d="M10.3802 9.29H11.1002C11.3102 9.29 11.5102 9.08 11.5102 8.88V4.54C11.5102 4.33 11.3002 4.13 11.1002 4.13H10.3802C10.1702 4.13 9.97021 4.34 9.97021 4.54V8.88C9.97021 9.09 10.1802 9.29 10.3802 9.29Z" fill="black"/>
<path d="M7.28012 9.29006H8.00012C8.21012 9.29006 8.41012 9.08006 8.41012 8.88006V2.47006C8.41012 2.26006 8.20012 2.06006 8.00012 2.06006H7.28012C7.07012 2.06006 6.87012 2.27006 6.87012 2.47006V8.88006C6.87012 9.09006 7.08012 9.29006 7.28012 9.29006Z" fill="black"/>
</g>
<defs>
<clipPath id="clip0_3092_492">
<rect width="13.5" height="13.5" fill="white"/>
</clipPath>
</defs>
</svg>
