<svg width="22" height="22" viewBox="0 0 22 22" fill="none" xmlns="http://www.w3.org/2000/svg">
<g clip-path="url(#clip0_3042_396)">
<path d="M9.92242 17.6293C6.81516 17.6293 4.00104 15.752 2.81383 12.8773C1.62662 10.0027 2.28618 6.688 4.48471 4.488C6.68325 2.288 9.99571 1.628 12.8685 2.816C15.7412 4.004 17.6173 6.82 17.6173 9.92933C17.6173 11.968 16.7965 13.9333 15.3601 15.3707C13.9238 16.808 11.9597 17.6293 9.92242 17.6293ZM21.6919 20.1373L17.6173 16.0893C20.9004 11.9827 20.4168 6.04267 16.5034 2.52267C12.59 -0.982666 6.60996 -0.821333 2.90177 2.904C-0.806425 6.61467 -0.967651 12.5987 2.53535 16.5147C6.053 20.4307 11.989 20.9147 16.093 17.6293L20.1383 21.6773C20.3435 21.8827 20.622 22 20.9151 22C21.2082 22 21.4867 21.8827 21.6919 21.6773C22.1023 21.252 22.1023 20.5773 21.6919 20.152V20.1373Z" fill="#1D1B20"/>
</g>
<defs>
<clipPath id="clip0_3042_396">
<rect width="22" height="22" fill="white"/>
</clipPath>
</defs>
</svg>
