<svg width="34" height="39" viewBox="0 0 34 39" fill="none" xmlns="http://www.w3.org/2000/svg">
<g clip-path="url(#clip0_3013_874)">
<path d="M5.95 11.8696C5.95 11.8696 11.05 19.2457 11.05 23.2983C11.05 27.9783 7.429 28.8261 5.95 28.8261C4.471 28.8261 0.85 27.9783 0.85 23.2983C0.85 19.2457 5.95 11.8696 5.95 11.8696Z" stroke="#6F6F6F" stroke-width="2" stroke-linecap="round" stroke-linejoin="round"/>
<path d="M14.45 0.847839C14.45 0.847839 17.85 6.41806 17.85 9.08023C17.85 12.1578 15.419 12.7174 14.45 12.7174C13.481 12.7174 11.05 12.1578 11.05 9.08023C11.05 6.41806 14.45 0.847839 14.45 0.847839Z" stroke="#6F6F6F" stroke-width="2" stroke-linecap="round" stroke-linejoin="round"/>
<path d="M24.65 9.32611C24.65 9.32611 33.15 21.857 33.15 28.7498C33.15 36.7109 27.166 38.1522 24.65 38.1522C22.134 38.1522 16.15 36.7109 16.15 28.7498C16.15 21.857 24.65 9.32611 24.65 9.32611Z" stroke="#6F6F6F" stroke-width="2" stroke-linecap="round" stroke-linejoin="round"/>
<path d="M29.648 30.2335C29.2485 32.8787 27.7865 33.9893 26.4945 34.4472" stroke="#6F6F6F" stroke-width="2" stroke-linecap="round" stroke-linejoin="round"/>
</g>
<defs>
<clipPath id="clip0_3013_874">
<rect width="34" height="39" fill="white"/>
</clipPath>
</defs>
</svg>
