<svg width="20" height="9" viewBox="0 0 20 9" fill="none" xmlns="http://www.w3.org/2000/svg">
<g clip-path="url(#clip0_3041_943)">
<path d="M0.416992 0.416664C2.01283 0.416664 2.01283 1.66666 3.60866 1.66666C5.20449 1.66666 5.20449 0.416664 6.80033 0.416664C8.39616 0.416664 8.39616 1.66666 9.99616 1.66666C11.5962 1.66666 11.592 0.416664 13.1878 0.416664C14.7837 0.416664 14.7878 1.66666 16.3837 1.66666C17.9795 1.66666 17.9837 0.416664 19.5795 0.416664" stroke="white" stroke-width="1.5" stroke-linecap="round" stroke-linejoin="round"/>
<path d="M0.416992 3.75C2.01283 3.75 2.01283 5 3.60866 5C5.20449 5 5.20449 3.75 6.80033 3.75C8.39616 3.75 8.39616 5 9.99616 5C11.5962 5 11.592 3.75 13.1878 3.75C14.7837 3.75 14.7878 5 16.3837 5C17.9795 5 17.9837 3.75 19.5795 3.75" stroke="white" stroke-width="1.5" stroke-linecap="round" stroke-linejoin="round"/>
<path d="M0.416992 7.08334C2.01283 7.08334 2.01283 8.33334 3.60866 8.33334C5.20449 8.33334 5.20449 7.08334 6.80033 7.08334C8.39616 7.08334 8.39616 8.33334 9.99616 8.33334C11.5962 8.33334 11.592 7.08334 13.1878 7.08334C14.7837 7.08334 14.7878 8.33334 16.3837 8.33334C17.9795 8.33334 17.9837 7.08334 19.5795 7.08334" stroke="white" stroke-width="1.5" stroke-linecap="round" stroke-linejoin="round"/>
</g>
<defs>
<clipPath id="clip0_3041_943">
<rect width="20" height="8.75" fill="white"/>
</clipPath>
</defs>
</svg>
