<svg width="16" height="15" viewBox="0 0 16 15" fill="none" xmlns="http://www.w3.org/2000/svg">
<g clip-path="url(#clip0_3017_610)">
<path d="M11.4463 3.86693C11.4463 3.88816 11.4463 3.88816 11.4463 3.86693V3.86693ZM9.299 5.7458C9.32023 5.7458 9.32023 5.7458 9.299 5.7458C9.36724 5.7458 9.43548 5.7458 9.299 5.7458ZM2.50684 2.16093C2.95268 1.75149 3.53044 1.47853 4.1446 1.41029C4.72237 1.34205 5.27284 1.44214 5.74597 1.71964C6.11901 1.92436 6.46021 2.19732 6.70133 2.53852C5.47301 1.9926 4.07636 2.22917 3.05276 3.11629C2.7798 3.35285 2.8162 3.83053 3.05276 4.07165C3.32572 4.34461 3.73516 4.30821 4.00812 4.07165C4.00812 4.07165 4.07636 4.00341 4.11276 4.00341C4.1446 3.97156 4.21739 3.93517 4.24924 3.89877C4.35387 3.83053 4.41756 3.79414 4.5222 3.7623C4.55859 3.7623 4.62683 3.73045 4.62683 3.73045C4.69507 3.69405 4.76331 3.69406 4.83155 3.66221C4.89979 3.66221 4.93619 3.63036 5.00443 3.63036H5.65498C5.75962 3.66221 5.89155 3.6986 5.99618 3.735H6.02803C6.09627 3.77139 6.13266 3.77139 6.2009 3.80324C6.30554 3.83508 6.37378 3.90787 6.47386 3.97611H6.50571C6.53755 4.00796 6.61034 4.04435 6.64219 4.08075C6.71043 4.14899 6.77867 4.21723 6.84691 4.31731L6.87875 4.34916V4.381C6.9106 4.4174 6.94699 4.44924 6.94699 4.51748C6.94699 4.54933 6.97884 4.54933 6.97884 4.58572C6.15996 4.31276 5.27284 4.51748 4.62228 5.09525C4.34932 5.33181 4.34932 5.80949 4.62228 6.05061C4.89524 6.32357 5.30468 6.28717 5.57764 6.05061L5.60949 6.01876C5.64133 5.98692 5.67773 5.98692 5.67773 5.98692C5.67773 5.98692 5.81421 5.91868 5.8506 5.88228H5.88245C5.91884 5.88228 5.95069 5.85044 6.01893 5.85044C6.05077 5.85044 6.08717 5.85044 6.12356 5.81859H6.39197C6.46021 5.81859 6.52845 5.85044 6.59669 5.88228C6.62854 5.88228 6.62854 5.91413 6.66493 5.91413C6.73317 5.94597 6.76957 5.98237 6.83781 6.01876C6.86965 6.01876 6.86965 6.05061 6.90605 6.05061L7.04253 6.18709C7.04253 6.21893 7.07437 6.21893 7.07437 6.25533C7.10622 6.32357 7.14261 6.35996 7.17901 6.4282C7.17901 6.46005 7.21085 6.49644 7.21085 6.49644C7.21085 6.52829 7.21085 6.56468 7.2427 6.60108V6.70571V6.67387V6.7785C7.2427 7.1197 7.55205 7.4609 7.9251 7.4609C8.29814 7.4609 8.6075 7.15155 8.6075 6.7785V6.50554C8.6075 6.4737 8.6075 6.4373 8.63934 6.40091C8.63934 6.36906 8.67119 6.33267 8.67119 6.29627C8.67119 6.25988 8.70303 6.15979 8.67119 6.26443C8.63934 6.36906 8.67119 6.26443 8.70303 6.23258C8.73488 6.20074 8.73488 6.16434 8.77127 6.12795C8.77127 6.12795 8.77127 6.0961 8.80312 6.0961L8.83496 6.06426C8.86681 6.03241 8.9396 5.99602 8.97144 5.92778C9.00329 5.92778 9.00329 5.89593 9.03968 5.89593C9.07608 5.89593 9.10792 5.86409 9.10792 5.86409H9.13977C9.17161 5.86409 9.20801 5.83224 9.2444 5.83224H9.61745C9.64929 5.83224 9.68569 5.83224 9.72208 5.86409C9.75848 5.86409 9.79032 5.86409 9.79032 5.89593H9.75848C9.75848 5.89593 9.79032 5.89593 9.79032 5.92778C9.79032 5.92778 9.82217 5.92778 9.82217 5.95962C9.85401 5.95962 9.89041 5.99147 9.89041 5.99147C9.9268 5.99147 9.9268 6.02331 9.95865 6.02331L10.0951 6.15979C10.3317 6.43275 10.8094 6.43275 11.0505 6.15979C11.3234 5.88683 11.3234 5.47739 11.0505 5.20443C10.5046 4.62667 9.61745 4.34916 8.83041 4.59027H8.79857V4.55843C8.83041 4.49019 8.86681 4.45379 8.9032 4.38555C8.9032 4.38555 8.97144 4.31731 8.97144 4.28092C9.00329 4.24907 9.03968 4.21268 9.03968 4.17628L9.2444 3.97156C9.2444 3.97156 9.31264 3.90332 9.34904 3.90332C9.38088 3.87148 9.41728 3.83508 9.48552 3.83508C9.51736 3.80324 9.55376 3.80324 9.622 3.76684L9.69024 3.735C9.72208 3.735 9.75848 3.70315 9.75848 3.70315C9.82672 3.67131 9.86311 3.67131 9.93135 3.67131C9.9632 3.67131 10.036 3.63946 10.0678 3.63946H10.6865C10.7184 3.63946 10.7912 3.67131 10.823 3.67131C10.8549 3.67131 10.9277 3.70315 10.9595 3.70315C10.9595 3.70315 11.0277 3.735 11.0641 3.735L11.2689 3.83963C11.3007 3.87148 11.3735 3.90787 11.4053 3.94427C11.51 4.01251 11.5782 4.11714 11.6419 4.18083C11.8785 4.45379 12.3607 4.45379 12.5973 4.18083C12.8702 3.90787 12.8702 3.49843 12.5973 3.22547C11.8102 2.3702 10.5819 2.03355 9.49462 2.33835C9.35814 2.3702 9.22166 2.44299 9.11702 2.47483C9.18526 2.3702 9.2535 2.30196 9.32174 2.23827C9.69479 1.86522 10.1088 1.58771 10.5819 1.45123C11.0277 1.3466 11.469 1.3466 11.9149 1.45123C12.3925 1.58771 12.802 1.86067 13.175 2.23827C13.7892 2.88882 14.7445 1.92891 14.1304 1.28291C13.1523 0.18652 11.5873 -0.259315 10.1543 0.150125C9.16707 0.423085 8.38003 1.06909 7.87051 1.88797C7.49746 1.34205 6.98339 0.86437 6.33283 0.555016C4.73147 -0.259315 2.8162 0.0454904 1.48779 1.24196C1.21483 1.47853 1.25123 1.95621 1.48779 2.19732C1.82899 2.43389 2.23843 2.40204 2.51139 2.16548L2.50684 2.16093ZM7.72948 11.8556H8.2754V13.5934H7.72948V11.8556ZM4.00812 9.77196H11.9922C11.7875 10.1814 11.3416 10.4862 10.864 10.4862H5.13181C4.65413 10.4862 4.21284 10.1769 4.00357 9.77196H4.00812ZM14.6217 14.9582H15.336C16.2231 14.9582 16.2231 13.5934 15.336 13.5934H9.6402V11.8556H10.8685C12.1287 11.8556 13.1887 10.9684 13.4252 9.77651H13.9029C14.79 9.77651 14.79 8.41171 13.9029 8.41171H2.0974C1.21028 8.41171 1.21028 9.77651 2.0974 9.77651H2.57508C2.81165 10.9684 3.87164 11.8556 5.13181 11.8556H6.36013V13.5934H0.664363C-0.222756 13.5934 -0.222756 14.9582 0.664363 14.9582H14.6217Z" fill="#333333"/>
</g>
<defs>
<clipPath id="clip0_3017_610">
<rect width="16" height="14.9582" fill="white"/>
</clipPath>
</defs>
</svg>
