<svg width="40" height="37" viewBox="0 0 40 37" fill="none" xmlns="http://www.w3.org/2000/svg">
<g clip-path="url(#clip0_3014_94)">
<path d="M14.1667 13.4545C13.125 11.84 11.4083 10.9318 9.16666 10.9318C4.99999 10.9318 0.833328 14.2955 0.833328 18.5C0.833328 22.7045 3.91666 26.0682 8.175 26.0682H30.7C35.7 26.0682 39.1667 22.8559 39.1667 17.6591C39.1667 13.4545 35.575 9.25 31.6667 9.25C29.7167 9.25 28.15 9.93114 26.6667 10.9318" stroke="#6F6F6F" stroke-width="2" stroke-linecap="round" stroke-linejoin="round"/>
<path d="M32.175 9.26679C31.2417 5.38179 27.7 0.840881 20.8333 0.840881C14.8583 0.840881 11.4 4.28861 9.99167 7.74475" stroke="#6F6F6F" stroke-width="2" stroke-linecap="round" stroke-linejoin="round"/>
<path d="M10.8333 30.2727L8.33333 36.1591" stroke="#6F6F6F" stroke-width="2" stroke-linecap="round" stroke-linejoin="round"/>
<path d="M16.6667 30.2727L14.1667 36.1591" stroke="#6F6F6F" stroke-width="2" stroke-linecap="round" stroke-linejoin="round"/>
<path d="M22.5 30.2727L20 36.1591" stroke="#6F6F6F" stroke-width="2" stroke-linecap="round" stroke-linejoin="round"/>
<path d="M28.3333 30.2727L25.8333 36.1591" stroke="#6F6F6F" stroke-width="2" stroke-linecap="round" stroke-linejoin="round"/>
</g>
<defs>
<clipPath id="clip0_3014_94">
<rect width="40" height="37" fill="white"/>
</clipPath>
</defs>
</svg>
