<svg width="16" height="16" viewBox="0 0 16 16" fill="none" xmlns="http://www.w3.org/2000/svg">
<g clip-path="url(#clip0_3041_934)">
<path d="M4.42721 5.42479H3.70807V5.05066H4.42721V5.42479ZM3.14688 3.80359C2.7395 3.80359 2.42773 4.11535 2.42773 4.52273V5.95687C2.42773 6.36425 2.7395 6.67602 3.14688 6.67602H4.92189C5.32927 6.67602 5.64104 6.36425 5.64104 5.95687V4.52273C5.64104 4.11535 5.32927 3.80359 4.92189 3.80359H3.14688Z" fill="white"/>
<path d="M11.0075 11.7225C10.5087 11.0366 10.0722 10.3175 9.60249 9.63575C9.16602 8.98312 8.66719 8.48428 8.07275 7.9813V6.70512C8.53832 6.95454 8.97896 7.2663 9.34892 7.61133C10.0972 8.29722 10.5669 9.07457 11.0616 9.94752C11.9345 11.4773 13.2149 12.6287 14.7072 13.5017V14.6864C13.988 14.5617 13.3645 14.3123 12.8075 13.8467C12.1216 13.2232 11.5313 12.4749 10.9992 11.7267L11.0075 11.7225ZM1.24708 11.4731H6.85892V12.8158H1.24708V11.4731ZM6.85892 3.39621V7.63627H1.24708V3.58327C2.18238 2.86412 3.11769 2.14913 4.053 1.46324C4.98831 2.08678 5.92362 2.73941 6.85892 3.39621ZM1.24708 8.88335H6.85892V10.226H1.24708V8.88335ZM15.7464 12.5622C15.7132 12.5622 15.7132 12.5331 15.7132 12.5331C14.9026 12.0967 14.1543 11.5978 13.4684 10.9452C12.8449 10.3216 12.3793 9.63575 11.9719 8.85841C11.0657 7.27046 9.76046 6.02338 8.106 5.24188V2.99714C8.106 2.81008 7.98129 2.65212 7.85659 2.56067L7.79423 2.49831C6.64276 1.68771 5.48714 0.877113 4.36477 0.0997678C4.20681 -0.0249399 3.89919 -0.0249399 3.74123 0.0997678C2.58976 0.997663 1.46324 1.87062 0.311769 2.74357L0.278514 2.77267C0.120551 2.86828 0 3.02209 0 3.2715V15.2434C0 16.054 1.24708 16.054 1.24708 15.2434V14.092H6.85892V15.2434C6.85892 16.054 8.106 16.054 8.106 15.2434V9.66069C8.1351 9.68979 8.16835 9.72305 8.20161 9.7854C8.24318 9.84914 8.30553 9.93228 8.38867 10.0348C8.48428 10.1595 8.57573 10.3175 8.67134 10.4713C9.17017 11.2528 9.66901 12.0592 10.2302 12.8116C10.8537 13.6222 11.5064 14.4328 12.3502 15.0231C13.2523 15.6758 14.2832 15.9584 15.3723 15.9875C15.655 15.9875 15.8088 15.8628 15.9002 15.6758C15.9626 15.5802 15.9958 15.4887 15.9958 15.364V13.1193C16.0249 12.9031 15.9667 12.7119 15.7464 12.5581V12.5622Z" fill="white"/>
</g>
<defs>
<clipPath id="clip0_3041_934">
<rect width="16" height="15.9917" fill="white"/>
</clipPath>
</defs>
</svg>
