<svg width="30" height="44" viewBox="0 0 30 44" fill="none" xmlns="http://www.w3.org/2000/svg">
<g clip-path="url(#clip0_3017_495)">
<g filter="url(#filter0_d_3017_495)">
<path d="M14 35L7.93782 21.5L20.0622 21.5L14 35Z" fill="#12C138"/>
<circle cx="14" cy="14" r="14" fill="#12C138"/>
</g>
<g clip-path="url(#clip1_3017_495)">
<path d="M17.4463 9.86693C17.4463 9.88816 17.4463 9.88816 17.4463 9.86693V9.86693ZM15.299 11.7458C15.3202 11.7458 15.3202 11.7458 15.299 11.7458C15.3672 11.7458 15.4355 11.7458 15.299 11.7458ZM8.50684 8.16093C8.95268 7.75149 9.53044 7.47853 10.1446 7.41029C10.7224 7.34205 11.2728 7.44214 11.746 7.71965C12.119 7.92437 12.4602 8.19733 12.7013 8.53853C11.473 7.99261 10.0764 8.22917 9.05276 9.11629C8.7798 9.35286 8.8162 9.83054 9.05276 10.0717C9.32572 10.3446 9.73516 10.3082 10.0081 10.0717C10.0081 10.0717 10.0764 10.0034 10.1128 10.0034C10.1446 9.97157 10.2174 9.93517 10.2492 9.89878C10.3539 9.83054 10.4176 9.79414 10.5222 9.7623C10.5586 9.7623 10.6268 9.73045 10.6268 9.73045C10.6951 9.69406 10.7633 9.69406 10.8316 9.66221C10.8998 9.66221 10.9362 9.63037 11.0044 9.63037H11.655C11.7596 9.66221 11.8915 9.69861 11.9962 9.735H12.028C12.0963 9.7714 12.1327 9.7714 12.2009 9.80324C12.3055 9.83509 12.3738 9.90788 12.4739 9.97612H12.5057C12.5376 10.008 12.6103 10.0444 12.6422 10.0808C12.7104 10.149 12.7787 10.2172 12.8469 10.3173L12.8788 10.3492V10.381C12.9106 10.4174 12.947 10.4492 12.947 10.5175C12.947 10.5493 12.9788 10.5493 12.9788 10.5857C12.16 10.3128 11.2728 10.5175 10.6223 11.0953C10.3493 11.3318 10.3493 11.8095 10.6223 12.0506C10.8952 12.3236 11.3047 12.2872 11.5776 12.0506L11.6095 12.0188C11.6413 11.9869 11.6777 11.9869 11.6777 11.9869C11.6777 11.9869 11.8142 11.9187 11.8506 11.8823H11.8824C11.9188 11.8823 11.9507 11.8504 12.0189 11.8504C12.0508 11.8504 12.0872 11.8504 12.1236 11.8186H12.392C12.4602 11.8186 12.5285 11.8504 12.5967 11.8823C12.6285 11.8823 12.6285 11.9141 12.6649 11.9141C12.7332 11.946 12.7696 11.9824 12.8378 12.0188C12.8697 12.0188 12.8697 12.0506 12.906 12.0506L13.0425 12.1871C13.0425 12.2189 13.0744 12.2189 13.0744 12.2553C13.1062 12.3236 13.1426 12.36 13.179 12.4282C13.179 12.4601 13.2109 12.4964 13.2109 12.4964C13.2109 12.5283 13.2109 12.5647 13.2427 12.6011V12.7057V12.6739V12.7785C13.2427 13.1197 13.5521 13.4609 13.9251 13.4609C14.2981 13.4609 14.6075 13.1516 14.6075 12.7785V12.5055C14.6075 12.4737 14.6075 12.4373 14.6393 12.4009C14.6393 12.3691 14.6712 12.3327 14.6712 12.2963C14.6712 12.2599 14.703 12.1598 14.6712 12.2644C14.6393 12.3691 14.6712 12.2644 14.703 12.2326C14.7349 12.2007 14.7349 12.1643 14.7713 12.128C14.7713 12.128 14.7713 12.0961 14.8031 12.0961L14.835 12.0643C14.8668 12.0324 14.9396 11.996 14.9714 11.9278C15.0033 11.9278 15.0033 11.8959 15.0397 11.8959C15.0761 11.8959 15.1079 11.8641 15.1079 11.8641H15.1398C15.1716 11.8641 15.208 11.8322 15.2444 11.8322H15.6174C15.6493 11.8322 15.6857 11.8322 15.7221 11.8641C15.7585 11.8641 15.7903 11.8641 15.7903 11.8959H15.7585C15.7585 11.8959 15.7903 11.8959 15.7903 11.9278C15.7903 11.9278 15.8222 11.9278 15.8222 11.9596C15.854 11.9596 15.8904 11.9915 15.8904 11.9915C15.9268 11.9915 15.9268 12.0233 15.9586 12.0233L16.0951 12.1598C16.3317 12.4328 16.8094 12.4328 17.0505 12.1598C17.3234 11.8868 17.3234 11.4774 17.0505 11.2044C16.5046 10.6267 15.6174 10.3492 14.8304 10.5903H14.7986V10.5584C14.8304 10.4902 14.8668 10.4538 14.9032 10.3856C14.9032 10.3856 14.9714 10.3173 14.9714 10.2809C15.0033 10.2491 15.0397 10.2127 15.0397 10.1763L15.2444 9.97157C15.2444 9.97157 15.3126 9.90333 15.349 9.90333C15.3809 9.87148 15.4173 9.83509 15.4855 9.83509C15.5174 9.80324 15.5538 9.80324 15.622 9.76685L15.6902 9.735C15.7221 9.735 15.7585 9.70316 15.7585 9.70316C15.8267 9.67131 15.8631 9.67131 15.9314 9.67131C15.9632 9.67131 16.036 9.63947 16.0678 9.63947H16.6865C16.7184 9.63947 16.7912 9.67131 16.823 9.67131C16.8549 9.67131 16.9277 9.70316 16.9595 9.70316C16.9595 9.70316 17.0277 9.735 17.0641 9.735L17.2689 9.83964C17.3007 9.87148 17.3735 9.90788 17.4053 9.94427C17.51 10.0125 17.5782 10.1171 17.6419 10.1808C17.8785 10.4538 18.3607 10.4538 18.5973 10.1808C18.8702 9.90788 18.8702 9.49844 18.5973 9.22548C17.8102 8.3702 16.5819 8.03355 15.4946 8.33836C15.3581 8.3702 15.2217 8.44299 15.117 8.47484C15.1853 8.3702 15.2535 8.30196 15.3217 8.23827C15.6948 7.86523 16.1088 7.58772 16.5819 7.45124C17.0277 7.3466 17.469 7.3466 17.9149 7.45124C18.3925 7.58772 18.802 7.86068 19.175 8.23827C19.7892 8.88883 20.7445 7.92892 20.1304 7.28291C19.1523 6.18652 17.5873 5.74069 16.1543 6.15013C15.1671 6.42309 14.38 7.06909 13.8705 7.88797C13.4975 7.34205 12.9834 6.86437 12.3328 6.55502C10.7315 5.74069 8.8162 6.04549 7.48779 7.24197C7.21483 7.47853 7.25123 7.95621 7.48779 8.19733C7.82899 8.43389 8.23843 8.40205 8.51139 8.16548L8.50684 8.16093ZM13.7295 17.8556H14.2754V19.5934H13.7295V17.8556ZM10.0081 15.772H17.9922C17.7875 16.1814 17.3416 16.4862 16.864 16.4862H11.1318C10.6541 16.4862 10.2128 16.1769 10.0036 15.772H10.0081ZM20.6217 20.9582H21.336C22.2231 20.9582 22.2231 19.5934 21.336 19.5934H15.6402V17.8556H16.8685C18.1287 17.8556 19.1887 16.9684 19.4252 15.7765H19.9029C20.79 15.7765 20.79 14.4117 19.9029 14.4117H8.0974C7.21028 14.4117 7.21028 15.7765 8.0974 15.7765H8.57508C8.81165 16.9684 9.87164 17.8556 11.1318 17.8556H12.3601V19.5934H6.66436C5.77724 19.5934 5.77724 20.9582 6.66436 20.9582H20.6217Z" fill="white"/>
</g>
</g>
<defs>
<filter id="filter0_d_3017_495" x="-4" y="0" width="36" height="43" filterUnits="userSpaceOnUse" color-interpolation-filters="sRGB">
<feFlood flood-opacity="0" result="BackgroundImageFix"/>
<feColorMatrix in="SourceAlpha" type="matrix" values="0 0 0 0 0 0 0 0 0 0 0 0 0 0 0 0 0 0 127 0" result="hardAlpha"/>
<feOffset dy="4"/>
<feGaussianBlur stdDeviation="2"/>
<feComposite in2="hardAlpha" operator="out"/>
<feColorMatrix type="matrix" values="0 0 0 0 0 0 0 0 0 0 0 0 0 0 0 0 0 0 0.1 0"/>
<feBlend mode="normal" in2="BackgroundImageFix" result="effect1_dropShadow_3017_495"/>
<feBlend mode="normal" in="SourceGraphic" in2="effect1_dropShadow_3017_495" result="shape"/>
</filter>
<clipPath id="clip0_3017_495">
<rect width="30" height="44" fill="white"/>
</clipPath>
<clipPath id="clip1_3017_495">
<rect width="16" height="14.9582" fill="white" transform="translate(6 6)"/>
</clipPath>
</defs>
</svg>
