<svg width="31" height="40" viewBox="0 0 31 40" fill="none" xmlns="http://www.w3.org/2000/svg">
<g clip-path="url(#clip0_3014_106)">
<path d="M26.6944 3.40424C26.6944 3.40424 30.1389 8.99572 30.1389 11.6681C30.1389 14.7574 27.6761 15.3191 26.6944 15.3191C25.7128 15.3191 23.25 14.7574 23.25 11.6681C23.25 8.99572 26.6944 3.40424 26.6944 3.40424Z" stroke="#6F6F6F" stroke-width="2" stroke-linecap="round" stroke-linejoin="round"/>
<path d="M12.4517 18.7234C14.3117 14.9958 16.3611 11.9149 16.3611 11.9149C16.3611 11.9149 23.25 22.2724 23.25 27.9745C23.25 34.5532 18.4536 35.7447 16.3611 35.7447C15.5 35.7447 14.1739 35.5404 12.9167 34.8426" stroke="#6F6F6F" stroke-width="2" stroke-linecap="round" stroke-linejoin="round"/>
<path d="M9.47223 11.0638V35.7447C9.47223 37.617 7.92223 39.1489 6.02779 39.1489C4.13334 39.1489 2.58334 37.617 2.58334 35.7447V11.0638" fill="white"/>
<path d="M9.47223 11.0638V35.7447C9.47223 37.617 7.92223 39.1489 6.02779 39.1489C4.13334 39.1489 2.58334 37.617 2.58334 35.7447V11.0638" stroke="#6F6F6F" stroke-width="2" stroke-linecap="round" stroke-linejoin="round"/>
<path d="M6.88889 11.0639H11.1944V6.80853H0.861115V11.0639H3.44445" stroke="#6F6F6F" stroke-width="2" stroke-linecap="round" stroke-linejoin="round"/>
<path d="M9.83334 3.40423C9.83334 3.5926 9.67721 3.75529 9.47223 3.75529C9.26724 3.75529 9.11111 3.5926 9.11111 3.40423C9.11111 3.21585 9.26724 3.05316 9.47223 3.05316C9.67721 3.05316 9.83334 3.21585 9.83334 3.40423Z" fill="#555555" stroke="#6F6F6F"/>
<path d="M6.38888 3.40423C6.38888 3.5926 6.23275 3.75529 6.02777 3.75529C5.82278 3.75529 5.66666 3.5926 5.66666 3.40423C5.66666 3.21585 5.82278 3.05316 6.02777 3.05316C6.23275 3.05316 6.38888 3.21585 6.38888 3.40423Z" fill="#555555" stroke="#6F6F6F"/>
<path d="M2.94445 3.40423C2.94445 3.5926 2.78832 3.75529 2.58334 3.75529C2.37836 3.75529 2.22223 3.5926 2.22223 3.40423C2.22223 3.21585 2.37836 3.05316 2.58334 3.05316C2.78832 3.05316 2.94445 3.21585 2.94445 3.40423Z" fill="#555555" stroke="#6F6F6F"/>
<path d="M4.66668 0.851064C4.66668 1.03943 4.51055 1.20213 4.30557 1.20213C4.10058 1.20213 3.94446 1.03943 3.94446 0.851064C3.94446 0.662693 4.10058 0.5 4.30557 0.5C4.51055 0.5 4.66668 0.662693 4.66668 0.851064Z" fill="#555555" stroke="#6F6F6F"/>
<path d="M8.11111 0.851064C8.11111 1.03943 7.95498 1.20213 7.75 1.20213C7.54501 1.20213 7.38889 1.03943 7.38889 0.851064C7.38889 0.662693 7.54501 0.5 7.75 0.5C7.95498 0.5 8.11111 0.662693 8.11111 0.851064Z" fill="#555555" stroke="#6F6F6F"/>
</g>
<defs>
<clipPath id="clip0_3014_106">
<rect width="31" height="40" fill="white"/>
</clipPath>
</defs>
</svg>
