<svg width="20" height="20" viewBox="0 0 20 20" fill="none" xmlns="http://www.w3.org/2000/svg">
<path d="M1.55615 13.9138C2.96071 13.9138 2.96071 14.9518 4.36608 14.9518C5.77144 14.9518 5.77224 13.9138 7.17921 13.9138C8.58618 13.9138 8.58618 14.9518 9.99235 14.9518C11.3985 14.9518 11.3993 13.9138 12.8063 13.9138C14.2133 13.9138 14.2157 14.9518 15.625 14.9518C17.0344 14.9518 17.0344 13.9138 18.4438 13.9138" stroke="#1A5CD0" stroke-width="1.5" stroke-linecap="round" stroke-linejoin="round"/>
<path d="M1.55615 16.9619C2.96071 16.9619 2.96071 18 4.36608 18C5.77144 18 5.77224 16.9619 7.17921 16.9619C8.58618 16.9619 8.58618 18 9.99235 18C11.3985 18 11.3993 16.9619 12.8063 16.9619C14.2133 16.9619 14.2157 18 15.625 18C17.0344 18 17.0344 16.9619 18.4438 16.9619" stroke="#1A5CD0" stroke-width="1.5" stroke-linecap="round" stroke-linejoin="round"/>
<path d="M7.61914 12.3388V3.4445C7.61914 2.64763 8.25758 1.99905 9.05101 1.99905C9.44772 1.99905 9.80027 2.16283 10.0572 2.42356C10.3142 2.6843 10.4756 3.04199 10.4756 3.4445V5.28431" stroke="#1A5CD0" stroke-width="1.5" stroke-linecap="round" stroke-linejoin="round"/>
<path d="M13.0005 12.3388V3.4445C13.0005 2.64763 13.6389 1.99905 14.4324 1.99905C14.8218 1.99905 15.1816 2.16283 15.4458 2.42356C15.7028 2.6843 15.8642 3.04199 15.8642 3.4445V5.28431" stroke="#1A5CD0" stroke-width="1.5" stroke-linecap="round" stroke-linejoin="round"/>
<path d="M7.61719 6.98154H13.0017" stroke="#1A5CD0" stroke-width="1.5" stroke-linecap="round" stroke-linejoin="round"/>
<path d="M7.61719 8.89059H13.0017" stroke="#1A5CD0" stroke-width="1.5" stroke-linecap="round" stroke-linejoin="round"/>
<path d="M7.61719 10.7997H13.0017" stroke="#1A5CD0" stroke-width="1.5" stroke-linecap="round" stroke-linejoin="round"/>
</svg>
