<svg width="17" height="15" viewBox="0 0 17 15" fill="none" xmlns="http://www.w3.org/2000/svg">
<g clip-path="url(#clip0_3017_473)">
<path d="M14.5 7.4375C14.5 7.4375 16 9.15135 16 10.1175C16 11.2344 14.9275 11.4375 14.5 11.4375C14.0725 11.4375 13 11.2344 13 10.1175C13 9.15135 14.5 7.4375 14.5 7.4375Z" stroke="white" stroke-width="1.3" stroke-linecap="round" stroke-linejoin="round"/>
<path d="M13.3071 3.53917L14.2224 2.62391C14.3343 2.51205 14.3343 2.33239 14.2224 2.22391L12.741 0.742561C12.6292 0.630697 12.4495 0.630697 12.341 0.742561L11.4258 1.65781" stroke="white" stroke-width="1.3" stroke-linecap="round" stroke-linejoin="round"/>
<path d="M9.89326 8.07476C10.5 8.68154 11.1644 8.57985 11.6966 8.04426C11.6966 8.04426 12.1034 7.63748 12.4288 7.31205C13.2424 6.4985 13.2255 5.86121 12.9373 5.06121C12.6526 4.26121 13.3068 3.53579 13.3068 3.53579L12.3644 2.59342L11.4221 1.65105C11.4221 1.65105 10.6966 2.30528 9.89665 2.02054C9.09665 1.73579 8.45597 1.71884 7.64581 2.52901C7.32038 2.85443 6.9136 3.26121 6.9136 3.26121C6.3814 3.79342 6.27632 4.45782 6.8831 5.0646L9.88987 8.07138L9.89326 8.07476Z" stroke="white" stroke-width="1.3" stroke-linecap="round" stroke-linejoin="round"/>
<path d="M5.62224 4.73239C5.43241 4.80697 5.25275 4.93239 5.08326 5.09849L4.46292 5.71883C3.93072 6.25103 3.82563 6.91544 4.43241 7.52222L5.9341 9.02391L7.4358 10.5256C8.04258 11.1324 8.70698 11.0307 9.23918 10.4951L9.85952 9.87475C10.029 9.70526 10.1544 9.5256 10.2256 9.33577" stroke="white" stroke-width="1.3" stroke-linecap="round" stroke-linejoin="round"/>
<path d="M3.03596 7.31882C2.84613 7.3934 2.66647 7.51882 2.49698 7.68493L1.18851 8.9934C0.656304 9.5256 0.55122 10.19 1.158 10.7968L2.65969 12.2985L4.16138 13.8002C4.76816 14.4069 5.43257 14.3053 5.96477 13.7697L7.27324 12.4612C7.44273 12.2917 7.56816 12.112 7.63934 11.9222" stroke="white" stroke-width="1.3" stroke-linecap="round" stroke-linejoin="round"/>
</g>
<defs>
<clipPath id="clip0_3017_473">
<rect width="17" height="14.875" fill="white"/>
</clipPath>
</defs>
</svg>
