<svg width="48" height="38" viewBox="0 0 48 38" fill="none" xmlns="http://www.w3.org/2000/svg">
<path d="M2 18C5.83 18 5.83 21 9.66 21C11.25 21 12.18 20.48 13 19.88" stroke="#6F6F6F" stroke-width="2" stroke-linecap="round" stroke-linejoin="round"/>
<path d="M46 18C42.17 18 42.17 21 38.34 21C36.75 21 35.82 20.48 35 19.88" stroke="#6F6F6F" stroke-width="2" stroke-linecap="round" stroke-linejoin="round"/>
<path d="M2 26C5.51083 26 5.51083 28 9.02167 28C11.0842 28 11.9367 27.3133 13 26.74" stroke="#6F6F6F" stroke-width="2" stroke-linecap="round" stroke-linejoin="round"/>
<path d="M46 25C42.4892 25 42.4892 28 38.9783 28C36.9158 28 36.0633 26.97 35 26.11" stroke="#6F6F6F" stroke-width="2" stroke-linecap="round" stroke-linejoin="round"/>
<path d="M2 33C5.66427 33 5.66427 36 9.32855 36C12.9928 36 12.9928 33 16.6571 33C20.3214 33 20.3214 36 23.9952 36C27.6691 36 27.6595 33 31.3238 33C34.988 33 34.9976 36 38.6619 36C42.3262 36 42.3357 33 46 33" stroke="#6F6F6F" stroke-width="2" stroke-linecap="round" stroke-linejoin="round"/>
<path d="M24 2C24 2 32 13.3007 32 19.5221C32 26.7 26.43 28 24 28C21.57 28 16 26.7 16 19.5221C16 13.3007 24 2 24 2Z" stroke="#6F6F6F" stroke-width="2" stroke-linecap="round" stroke-linejoin="round"/>
<path d="M28 21C27.7484 23.8475 26.2677 24.7579 25 25Z" fill="white"/>
<path d="M28 21C27.7484 23.8475 26.2677 24.7579 25 25" stroke="#6F6F6F" stroke-width="2" stroke-linecap="round" stroke-linejoin="round"/>
</svg>
