<svg width="20" height="10" viewBox="0 0 20 10" fill="none" xmlns="http://www.w3.org/2000/svg">
<g clip-path="url(#clip0_3017_430)">
<path d="M0.416504 1.04166C2.01234 1.04166 2.01234 2.29166 3.60817 2.29166C5.204 2.29166 5.204 1.04166 6.79984 1.04166C8.39567 1.04166 8.39567 2.29166 9.99567 2.29166C11.5957 2.29166 11.5915 1.04166 13.1873 1.04166C14.7832 1.04166 14.7873 2.29166 16.3832 2.29166C17.979 2.29166 17.9832 1.04166 19.579 1.04166" stroke="#1A5CD0" stroke-width="1.5" stroke-linecap="round" stroke-linejoin="round"/>
<path d="M0.416504 4.375C2.01234 4.375 2.01234 5.625 3.60817 5.625C5.204 5.625 5.204 4.375 6.79984 4.375C8.39567 4.375 8.39567 5.625 9.99567 5.625C11.5957 5.625 11.5915 4.375 13.1873 4.375C14.7832 4.375 14.7873 5.625 16.3832 5.625C17.979 5.625 17.9832 4.375 19.579 4.375" stroke="#1A5CD0" stroke-width="1.5" stroke-linecap="round" stroke-linejoin="round"/>
<path d="M0.416504 7.70834C2.01234 7.70834 2.01234 8.95834 3.60817 8.95834C5.204 8.95834 5.204 7.70834 6.79984 7.70834C8.39567 7.70834 8.39567 8.95834 9.99567 8.95834C11.5957 8.95834 11.5915 7.70834 13.1873 7.70834C14.7832 7.70834 14.7873 8.95834 16.3832 8.95834C17.979 8.95834 17.9832 7.70834 19.579 7.70834" stroke="#1A5CD0" stroke-width="1.5" stroke-linecap="round" stroke-linejoin="round"/>
</g>
<defs>
<clipPath id="clip0_3017_430">
<rect width="20" height="8.75" fill="white" transform="translate(0 0.625)"/>
</clipPath>
</defs>
</svg>
