<svg width="16" height="16" viewBox="0 0 16 16" fill="none" xmlns="http://www.w3.org/2000/svg">
<g clip-path="url(#clip0_3015_397)">
<path d="M11.4463 4.38783C11.4463 4.40906 11.4463 4.40906 11.4463 4.38783V4.38783ZM9.299 6.26671C9.32023 6.26671 9.32023 6.26671 9.299 6.26671C9.36724 6.26671 9.43548 6.26671 9.299 6.26671ZM2.50684 2.68183C2.95268 2.27239 3.53044 1.99943 4.1446 1.93119C4.72237 1.86295 5.27284 1.96304 5.74597 2.24055C6.11901 2.44527 6.46021 2.71823 6.70133 3.05943C5.47301 2.51351 4.07636 2.75007 3.05276 3.63719C2.7798 3.87376 2.8162 4.35144 3.05276 4.59255C3.32572 4.86551 3.73516 4.82912 4.00812 4.59255C4.00812 4.59255 4.07636 4.52431 4.11276 4.52431C4.1446 4.49247 4.21739 4.45607 4.24924 4.41968C4.35387 4.35144 4.41756 4.31505 4.5222 4.2832C4.55859 4.2832 4.62683 4.25135 4.62683 4.25135C4.69507 4.21496 4.76331 4.21496 4.83155 4.18311C4.89979 4.18311 4.93619 4.15127 5.00443 4.15127H5.65498C5.75962 4.18311 5.89155 4.21951 5.99618 4.2559H6.02803C6.09627 4.2923 6.13266 4.2923 6.2009 4.32414C6.30554 4.35599 6.37378 4.42878 6.47386 4.49702H6.50571C6.53755 4.52886 6.61034 4.56526 6.64219 4.60165C6.71043 4.66989 6.77867 4.73813 6.84691 4.83822L6.87875 4.87006V4.90191C6.9106 4.9383 6.94699 4.97015 6.94699 5.03839C6.94699 5.07023 6.97884 5.07023 6.97884 5.10663C6.15996 4.83367 5.27284 5.03839 4.62228 5.61615C4.34932 5.85272 4.34932 6.3304 4.62228 6.57151C4.89524 6.84447 5.30468 6.80808 5.57764 6.57151L5.60949 6.53967C5.64133 6.50782 5.67773 6.50782 5.67773 6.50782C5.67773 6.50782 5.81421 6.43958 5.8506 6.40319H5.88245C5.91884 6.40319 5.95069 6.37134 6.01893 6.37134C6.05077 6.37134 6.08717 6.37134 6.12356 6.3395H6.39197C6.46021 6.3395 6.52845 6.37134 6.59669 6.40319C6.62854 6.40319 6.62854 6.43503 6.66493 6.43503C6.73317 6.46688 6.76957 6.50327 6.83781 6.53967C6.86965 6.53967 6.86965 6.57151 6.90605 6.57151L7.04253 6.70799C7.04253 6.73984 7.07437 6.73984 7.07437 6.77623C7.10622 6.84447 7.14261 6.88087 7.17901 6.94911C7.17901 6.98095 7.21085 7.01735 7.21085 7.01735C7.21085 7.04919 7.21085 7.08559 7.2427 7.12198V7.22662V7.19477V7.29941C7.2427 7.64061 7.55205 7.98181 7.9251 7.98181C8.29814 7.98181 8.6075 7.67245 8.6075 7.29941V7.02645C8.6075 6.9946 8.6075 6.95821 8.63934 6.92181C8.63934 6.88997 8.67119 6.85357 8.67119 6.81718C8.67119 6.78078 8.70303 6.6807 8.67119 6.78533C8.63934 6.88997 8.67119 6.78533 8.70303 6.75349C8.73488 6.72164 8.73488 6.68525 8.77127 6.64885C8.77127 6.64885 8.77127 6.61701 8.80312 6.61701L8.83496 6.58516C8.86681 6.55332 8.9396 6.51692 8.97144 6.44868C9.00329 6.44868 9.00329 6.41684 9.03968 6.41684C9.07608 6.41684 9.10792 6.38499 9.10792 6.38499H9.13977C9.17161 6.38499 9.20801 6.35315 9.2444 6.35315H9.61745C9.64929 6.35315 9.68569 6.35315 9.72208 6.38499C9.75848 6.38499 9.79032 6.38499 9.79032 6.41684H9.75848C9.75848 6.41684 9.79032 6.41684 9.79032 6.44868C9.79032 6.44868 9.82217 6.44868 9.82217 6.48053C9.85401 6.48053 9.89041 6.51237 9.89041 6.51237C9.9268 6.51237 9.9268 6.54422 9.95865 6.54422L10.0951 6.6807C10.3317 6.95366 10.8094 6.95366 11.0505 6.6807C11.3234 6.40774 11.3234 5.9983 11.0505 5.72534C10.5046 5.14757 9.61745 4.87006 8.83041 5.11118H8.79857V5.07933C8.83041 5.01109 8.86681 4.9747 8.9032 4.90646C8.9032 4.90646 8.97144 4.83822 8.97144 4.80182C9.00329 4.76998 9.03968 4.73358 9.03968 4.69719L9.2444 4.49247C9.2444 4.49247 9.31264 4.42423 9.34904 4.42423C9.38088 4.39238 9.41728 4.35599 9.48552 4.35599C9.51736 4.32414 9.55376 4.32414 9.622 4.28775L9.69024 4.2559C9.72208 4.2559 9.75848 4.22406 9.75848 4.22406C9.82672 4.19221 9.86311 4.19221 9.93135 4.19221C9.9632 4.19221 10.036 4.16037 10.0678 4.16037H10.6865C10.7184 4.16037 10.7912 4.19221 10.823 4.19221C10.8549 4.19221 10.9277 4.22406 10.9595 4.22406C10.9595 4.22406 11.0277 4.2559 11.0641 4.2559L11.2689 4.36054C11.3007 4.39238 11.3735 4.42878 11.4053 4.46517C11.51 4.53341 11.5782 4.63805 11.6419 4.70174C11.8785 4.9747 12.3607 4.9747 12.5973 4.70174C12.8702 4.42878 12.8702 4.01934 12.5973 3.74638C11.8102 2.8911 10.5819 2.55445 9.49462 2.85926C9.35814 2.8911 9.22166 2.96389 9.11702 2.99574C9.18526 2.8911 9.2535 2.82286 9.32174 2.75917C9.69479 2.38613 10.1088 2.10862 10.5819 1.97214C11.0277 1.8675 11.469 1.8675 11.9149 1.97214C12.3925 2.10862 12.802 2.38158 13.175 2.75917C13.7892 3.40973 14.7445 2.44982 14.1304 1.80381C13.1523 0.707424 11.5873 0.26159 10.1543 0.67103C9.16707 0.94399 8.38003 1.58999 7.87051 2.40887C7.49746 1.86295 6.98339 1.38527 6.33283 1.07592C4.73147 0.26159 2.8162 0.566395 1.48779 1.76287C1.21483 1.99943 1.25123 2.47711 1.48779 2.71823C1.82899 2.95479 2.23843 2.92295 2.51139 2.68638L2.50684 2.68183ZM7.72948 12.3765H8.2754V14.1143H7.72948V12.3765ZM4.00812 10.2929H11.9922C11.7875 10.7023 11.3416 11.0071 10.864 11.0071H5.13181C4.65413 11.0071 4.21284 10.6978 4.00357 10.2929H4.00812ZM14.6217 15.4791H15.336C16.2231 15.4791 16.2231 14.1143 15.336 14.1143H9.6402V12.3765H10.8685C12.1287 12.3765 13.1887 11.4893 13.4252 10.2974H13.9029C14.79 10.2974 14.79 8.93262 13.9029 8.93262H2.0974C1.21028 8.93262 1.21028 10.2974 2.0974 10.2974H2.57508C2.81165 11.4893 3.87164 12.3765 5.13181 12.3765H6.36013V14.1143H0.664363C-0.222756 14.1143 -0.222756 15.4791 0.664363 15.4791H14.6217Z" fill="#1A5CD0"/>
</g>
<defs>
<clipPath id="clip0_3015_397">
<rect width="16" height="14.9582" fill="white" transform="translate(0 0.520905)"/>
</clipPath>
</defs>
</svg>
