<svg width="9" height="16" viewBox="0 0 9 16" fill="none" xmlns="http://www.w3.org/2000/svg">
<g clip-path="url(#clip0_3094_518)">
<path d="M8.72998 7.66L1.31998 0.26C1.18998 0.1 0.98998 0 0.77998 0C0.56998 0 0.36998 0.07 0.21998 0.22C0.0699802 0.37 -0.01002 0.57 -2.00272e-05 0.78C-2.00272e-05 0.99 0.0999802 1.19 0.25998 1.32L7.05998 8.11L0.45998 14.71C0.16998 15 0.16998 15.47 0.45998 15.77C0.74998 16.06 1.21998 16.06 1.50998 15.77L8.72998 8.56C8.97998 8.31 8.97998 7.91 8.72998 7.66Z" fill="#231F20"/>
</g>
<defs>
<clipPath id="clip0_3094_518">
<rect width="8.92" height="15.99" fill="white" transform="matrix(-1 0 0 1 8.91992 0)"/>
</clipPath>
</defs>
</svg>
