<svg width="17" height="16" viewBox="0 0 17 16" fill="none" xmlns="http://www.w3.org/2000/svg">
<g clip-path="url(#clip0_3094_512)">
<path d="M8.65016 8.32996L1.24016 15.73C0.940157 15.99 0.500156 15.97 0.220156 15.69C-0.0598443 15.41 -0.0698434 14.97 0.180157 14.67L6.98016 7.86996L0.380154 1.26996C0.0901543 0.979962 0.0901542 0.509963 0.380154 0.209963C0.520154 0.0699626 0.710155 -0.0100377 0.920155 -0.0100377C1.13015 -0.0100377 1.31016 0.0699625 1.45016 0.209963L8.66016 7.41996C8.91016 7.66996 8.91016 8.06996 8.66016 8.31996L8.65016 8.32996Z" fill="#231F20"/>
<path d="M15.8301 8.32999L8.42008 15.73C8.29008 15.89 8.09008 15.99 7.88008 15.99C7.67008 15.99 7.47008 15.92 7.32008 15.77C7.17008 15.62 7.09008 15.42 7.10008 15.21C7.10008 15 7.20008 14.8 7.36008 14.67L14.1601 7.87999L7.56008 1.27999C7.27008 0.989991 7.27008 0.519991 7.56008 0.219991C7.85008 -0.0700095 8.32008 -0.0700095 8.61008 0.21999L15.8301 7.42999C16.0801 7.67999 16.0801 8.07999 15.8301 8.32999Z" fill="#231F20"/>
</g>
<defs>
<clipPath id="clip0_3094_512">
<rect width="16.02" height="15.99" fill="white" transform="translate(16.02 15.99) rotate(180)"/>
</clipPath>
</defs>
</svg>
