<svg width="17" height="16" viewBox="0 0 17 16" fill="none" xmlns="http://www.w3.org/2000/svg">
<g clip-path="url(#clip0_3094_508)">
<path d="M7.36986 7.66003L14.7799 0.260029C15.0799 2.88635e-05 15.5199 0.0200289 15.7999 0.300029C16.0799 0.580029 16.0899 1.02003 15.8399 1.32003L9.03986 8.12003L15.6399 14.72C15.9299 15.01 15.9299 15.48 15.6399 15.78C15.4999 15.92 15.3099 16 15.0999 16C14.8899 16 14.7099 15.92 14.5699 15.78L7.35986 8.57003C7.10986 8.32003 7.10986 7.92003 7.35986 7.67003L7.36986 7.66003Z" fill="#231F20"/>
<path d="M0.189941 7.66L7.59994 0.26C7.72994 0.1 7.92994 0 8.13994 0C8.34994 0 8.54994 0.07 8.69994 0.22C8.84994 0.37 8.92994 0.57 8.91994 0.78C8.91994 0.99 8.81994 1.19 8.65994 1.32L1.85994 8.11L8.45994 14.71C8.74994 15 8.74994 15.47 8.45994 15.77C8.16994 16.06 7.69994 16.06 7.40994 15.77L0.189941 8.56C-0.0600586 8.31 -0.0600586 7.91 0.189941 7.66Z" fill="#231F20"/>
</g>
<defs>
<clipPath id="clip0_3094_508">
<rect width="16.02" height="15.99" fill="white"/>
</clipPath>
</defs>
</svg>
